<svg id="icon_instagram" xmlns="http://www.w3.org/2000/svg" width="40" height="40" viewBox="0 0 40 40">
  <path id="Instagram" d="M17,34c-4.587,0-5.19-.02-7.007-.1a12.55,12.55,0,0,1-4.127-.79,8.32,8.32,0,0,1-3.011-1.96,8.32,8.32,0,0,1-1.96-3.011A12.549,12.549,0,0,1,.1,24.008C.02,22.191,0,21.587,0,17s.02-5.19.1-7.007a12.549,12.549,0,0,1,.79-4.127,8.32,8.32,0,0,1,1.96-3.011A8.32,8.32,0,0,1,5.864.893,12.549,12.549,0,0,1,9.992.1C11.809.02,12.413,0,17,0s5.192.02,7.009.1a12.549,12.549,0,0,1,4.127.79,8.32,8.32,0,0,1,3.011,1.96,8.32,8.32,0,0,1,1.96,3.011,12.55,12.55,0,0,1,.79,4.127c.083,1.817.1,2.421.1,7.007s-.02,5.192-.1,7.009a12.55,12.55,0,0,1-.79,4.127,8.685,8.685,0,0,1-4.972,4.972,12.55,12.55,0,0,1-4.127.79C22.191,33.981,21.587,34,17,34ZM16.994,8.267a8.727,8.727,0,1,0,8.728,8.726A8.736,8.736,0,0,0,16.994,8.267Zm9.639-2.6a2.078,2.078,0,1,0,2.079,2.077A2.08,2.08,0,0,0,26.633,5.666ZM16.994,22.66a5.666,5.666,0,1,1,5.666-5.666A5.672,5.672,0,0,1,16.994,22.66Z" transform="translate(3 3)" fill="#2b5c5e"/>
</svg>
