<svg xmlns="http://www.w3.org/2000/svg" width="40" height="40" viewBox="0 0 40 40"><defs><style>.a{fill:#2b5c5e;}</style></defs><path class="a" d="M34.54,3H5.45A2.47,2.47,0,0,0,3,5.45v29.1A2.47,2.47,0,0,0,5.45,37H34.54A2.46,2.46,0,0,0,37,34.55V5.45A2.46,2.46,0,0,0,34.54,3ZM15.06,28.67H10.91V16.24h4.15ZM13,14.54h0a2.16,2.16,0,1,1-.35-4.3H13a2.16,2.16,0,0,1,.41,4.3,1.41,1.41,0,0,1-.41,0ZM30,28.7H25.84V22c0-1.67-.6-2.85-2.09-2.85a2.28,2.28,0,0,0-2.13,1.51,2.9,2.9,0,0,0-.13,1v7H17.34s.06-11.28,0-12.45h4.15V18A4.11,4.11,0,0,1,25.21,16C27.94,16,30,17.73,30,21.56Z"/></svg>