<svg xmlns="http://www.w3.org/2000/svg" width="35.75" height="35.75" viewBox="0 0 35.75 35.75"><path d="M35.3,2.12H4.7A2.59,2.59,0,0,0,2.12,4.7V35.3A2.59,2.59,0,0,0,4.7,37.88H35.3a2.59,2.59,0,0,0,2.58-2.58V4.7A2.59,2.59,0,0,0,35.3,2.12Zm-20.49,27H10.45V16.05h4.36ZM12.63,14.26h0a2.27,2.27,0,1,1,.06-4.52,2.27,2.27,0,1,1,0,4.52ZM30.5,29.15H26.15v-7c0-1.76-.63-3-2.2-3a2.39,2.39,0,0,0-2.24,1.59,3.1,3.1,0,0,0-.14,1.06v7.32H17.21s.06-11.87,0-13.1h4.36V17.9a4.32,4.32,0,0,1,3.92-2.16c2.87,0,5,1.87,5,5.9Z" transform="translate(-2.12 -2.12)" style="fill:#2b5c5e"/></svg>