<svg id="icon_facebook" xmlns="http://www.w3.org/2000/svg" width="40" height="40" viewBox="0 0 40 40">
  <path id="Facebook" d="M19.247.007,14.45,0C9.06,0,5.578,3.477,5.578,8.86v4.085H.754A.744.744,0,0,0,0,13.679V19.6a.744.744,0,0,0,.754.734H5.578V35.266A.744.744,0,0,0,6.332,36h6.293a.744.744,0,0,0,.754-.734V20.332h5.64a.744.744,0,0,0,.754-.734l0-5.919a.725.725,0,0,0-.221-.519.765.765,0,0,0-.534-.215H13.379V9.482c0-1.664.408-2.509,2.635-2.509h3.232A.744.744,0,0,0,20,6.237V.742A.745.745,0,0,0,19.247.007Z" transform="translate(10 2)" fill="#2b5c5e"/>
</svg>
